<?xml version="1.0" encoding="UTF-8" standalone="no"?>
<!DOCTYPE svg PUBLIC "-//W3C//DTD SVG 1.1//EN" "http://www.w3.org/Graphics/SVG/1.1/DTD/svg11.dtd">
<svg width="100%" height="100%" viewBox="0 0 64 86" version="1.1" xmlns="http://www.w3.org/2000/svg" xmlns:xlink="http://www.w3.org/1999/xlink" xml:space="preserve" xmlns:serif="http://www.serif.com/" style="fill-rule:evenodd;clip-rule:evenodd;stroke-linejoin:round;stroke-miterlimit:2;">
    <g id="Artboard1" transform="matrix(1,0,0,1.31832,-11.2256,-0.257389)">
        <rect x="11.226" y="0.195" width="63.906" height="64.698" style="fill:none;"/>
        <clipPath id="_clip1">
            <rect x="11.226" y="0.195" width="63.906" height="64.698"/>
        </clipPath>
        <g clip-path="url(#_clip1)">
            <g transform="matrix(1,0,0,0.758544,16.3128,0.171783)">
                <g transform="matrix(1,0,0,1,-7.5,0)">
                    <path d="M57.884,73.938L57.884,73.875C54.491,73.875 52.144,75.845 50.281,77.255C48.418,78.655 47.044,79.505 46.075,79.505C45.105,79.505 43.722,78.655 41.859,77.255C39.996,75.845 37.649,73.875 34.256,73.875C30.863,73.875 28.516,75.845 26.653,77.255C24.79,78.655 23.416,79.505 22.446,79.505C21.477,79.505 20.103,78.655 18.24,77.255C16.377,75.845 14.021,73.875 10.628,73.875C7.235,73.875 4.888,75.845 3.025,77.255C1.162,78.655 -0.212,79.505 -1.182,79.505C-2.152,79.505 -3.534,78.655 -5.397,77.255C-7.26,75.845 -9.607,73.875 -13,73.875L-13,79.505C-12.031,79.505 -10.648,80.345 -8.785,81.745C-6.922,83.155 -4.575,85.135 -1.182,85.135C2.211,85.135 4.558,83.155 6.421,81.745C8.285,80.345 9.658,79.505 10.628,79.505L10.655,79.505L10.655,79.568C11.624,79.568 13.007,80.408 14.87,81.808C16.733,83.218 19.08,85.198 22.473,85.198C25.866,85.198 28.213,83.218 30.076,81.808C31.94,80.408 33.313,79.568 34.283,79.568C35.253,79.568 36.635,80.408 38.498,81.808C40.361,83.218 42.708,85.198 46.101,85.198C49.495,85.198 51.842,83.218 53.705,81.808C55.568,80.408 56.941,79.568 57.911,79.568C58.881,79.568 60.263,80.408 62.126,81.808C63.989,83.218 66.336,85.198 69.73,85.198C73.123,85.198 75.47,83.218 77.333,81.808C79.196,80.408 80.57,79.568 81.539,79.568L81.539,73.938C78.146,73.938 75.799,75.908 73.936,77.318C72.073,78.718 70.699,79.568 69.73,79.568C68.76,79.568 67.377,78.718 65.514,77.318C63.651,75.908 61.304,73.938 57.911,73.938L57.884,73.938ZM57.884,62.668L57.884,62.605C54.491,62.605 52.144,64.585 50.281,65.985C48.418,67.395 47.044,68.245 46.075,68.245C45.105,68.245 43.722,67.395 41.859,65.985C39.996,64.585 37.649,62.605 34.256,62.605C30.863,62.605 28.516,64.585 26.653,65.985C24.79,67.395 23.416,68.245 22.446,68.245C21.477,68.245 20.103,67.395 18.24,65.985C16.377,64.585 14.021,62.605 10.628,62.605C7.235,62.605 4.888,64.585 3.025,65.985C1.162,67.395 -0.212,68.245 -1.182,68.245C-2.152,68.245 -3.534,67.395 -5.397,65.985C-7.26,64.585 -9.607,62.605 -13,62.605L-13,68.245C-12.031,68.245 -10.648,69.075 -8.785,70.485C-6.922,71.895 -4.575,73.875 -1.182,73.875C2.211,73.875 4.558,71.895 6.421,70.485C8.285,69.075 9.658,68.245 10.628,68.245L10.655,68.245L10.655,68.308C11.624,68.308 13.007,69.138 14.87,70.548C16.733,71.958 19.08,73.938 22.473,73.938C25.866,73.938 28.213,71.958 30.076,70.548C31.94,69.138 33.313,68.308 34.283,68.308C35.253,68.308 36.635,69.138 38.498,70.548C40.361,71.958 42.708,73.938 46.101,73.938C49.495,73.938 51.842,71.958 53.705,70.548C55.568,69.138 56.941,68.308 57.911,68.308C58.881,68.308 60.263,69.138 62.126,70.548C63.989,71.958 66.336,73.938 69.73,73.938C73.123,73.938 75.47,71.958 77.333,70.548C79.196,69.138 80.57,68.308 81.539,68.308L81.539,62.668C78.146,62.668 75.799,64.648 73.936,66.048C72.073,67.458 70.699,68.308 69.73,68.308C68.76,68.308 67.377,67.458 65.514,66.048C63.651,64.648 61.304,62.668 57.911,62.668L57.884,62.668Z" style="fill-rule:nonzero;"/>
                </g>
                <g transform="matrix(1,0,0,1,-7.5,0)">
                    <path d="M36.304,17.03C35.635,17.03 33.132,17.056 32.486,17.056L12.263,17.03C6.842,17.03 2.495,21.446 2.495,26.93L2.495,50.373C2.495,54.913 8.506,54.913 8.506,50.373L8.506,27.563L12.131,27.563L12.131,59.993C14.728,60.463 16.651,62.043 18.221,63.233C19.157,63.943 19.967,64.503 20.667,64.893L20.667,53.553L24.249,53.553L24.249,64.853C24.935,64.463 25.726,63.913 26.634,63.233C28.223,62.033 30.168,60.423 32.811,59.973L32.82,27.563L36.172,27.563L36.172,59.993C38.769,60.463 40.692,62.043 42.262,63.233C43.198,63.943 44.008,64.503 44.708,64.893L44.708,53.553L48.29,53.553L48.29,64.853C48.976,64.463 49.767,63.913 50.675,63.233C52.264,62.033 54.209,60.423 56.852,59.973L56.861,27.563L60.425,27.563L60.425,50.373C60.425,54.963 66.401,54.963 66.401,50.373L66.401,27.071C66.401,22.006 62.455,17.056 56.527,17.056L36.304,17.03ZM22.445,0.195C18.243,0.195 14.824,3.605 14.824,7.807C14.826,12.035 18.244,15.437 22.445,15.437C26.673,15.437 30.092,12.035 30.092,7.807C30.092,3.605 26.673,0.195 22.445,0.195ZM46.486,0.195C42.284,0.195 38.865,3.605 38.865,7.807C38.867,12.035 42.285,15.437 46.486,15.437C50.714,15.437 54.133,12.035 54.133,7.807C54.133,3.605 50.714,0.195 46.486,0.195Z" style="fill-rule:nonzero;"/>
                </g>
            </g>
        </g>
    </g>
</svg>
