<?xml version="1.0" encoding="UTF-8" standalone="no"?>
<!DOCTYPE svg PUBLIC "-//W3C//DTD SVG 1.1//EN" "http://www.w3.org/Graphics/SVG/1.1/DTD/svg11.dtd">
<svg width="100%" height="100%" viewBox="0 0 16 15" version="1.1" xmlns="http://www.w3.org/2000/svg" xmlns:xlink="http://www.w3.org/1999/xlink" xml:space="preserve" xmlns:serif="http://www.serif.com/" style="fill-rule:evenodd;clip-rule:evenodd;stroke-linejoin:round;stroke-miterlimit:2;">
    <path d="M5.474,5.942L5.34,5.804L5.084,5.471L4.908,5.182L4.729,4.797L4.595,4.388L4.526,4.046L4.49,3.693L4.49,3.332L4.54,2.892L4.643,2.471L4.795,2.071L4.993,1.697L5.232,1.35L5.512,1.036L5.826,0.757L6.172,0.517L6.548,0.319L6.948,0.166L7.283,0.08L7.719,0.019L8.079,0.01L8.522,0.049L8.947,0.143L9.352,0.285L9.731,0.473L10.084,0.705L10.405,0.977L10.691,1.284L10.94,1.625L11.146,1.994L11.28,2.308L11.382,2.637L11.452,2.979L11.488,3.332L11.488,3.693L11.452,4.046L11.359,4.471L11.217,4.875L11.028,5.256L10.796,5.608L10.524,5.929L10.479,5.971L11.768,8.056L11.769,8.055L12.205,7.995L12.565,7.986L13.008,8.024L13.433,8.118L13.838,8.26L14.217,8.449L14.57,8.681L14.891,8.952L15.177,9.26L15.426,9.6L15.632,9.97L15.766,10.283L15.868,10.613L15.938,10.954L15.974,11.308L15.974,11.668L15.938,12.022L15.845,12.447L15.703,12.851L15.514,13.231L15.282,13.584L15.01,13.904L14.702,14.191L14.363,14.439L13.993,14.646L13.598,14.807L13.266,14.902L12.833,14.974L12.385,14.99L12.029,14.964L11.599,14.881L11.191,14.749L10.806,14.568L10.447,14.344L10.12,14.081L9.826,13.78L9.57,13.446L9.394,13.158L9.215,12.772L9.081,12.363L9.012,12.022L8.976,11.668L8.976,11.308L9.026,10.868L9.129,10.447L9.281,10.046L9.479,9.672L9.719,9.326L9.998,9.011L10.195,8.837L8.979,6.87L8.78,6.926L8.347,6.998L7.899,7.015L7.543,6.988L7.113,6.905L7.078,6.894L5.806,8.846L5.938,8.958L6.223,9.266L6.472,9.606L6.678,9.975L6.812,10.289L6.914,10.618L6.984,10.96L7.02,11.313L7.02,11.674L6.984,12.027L6.891,12.452L6.749,12.857L6.56,13.237L6.328,13.589L6.056,13.91L5.749,14.197L5.409,14.444L5.04,14.652L4.644,14.813L4.312,14.907L3.879,14.979L3.431,14.996L3.075,14.969L2.645,14.886L2.237,14.754L1.852,14.574L1.494,14.35L1.166,14.086L0.872,13.785L0.616,13.452L0.44,13.163L0.261,12.778L0.128,12.369L0.058,12.027L0.022,11.674L0.022,11.313L0.072,10.873L0.175,10.452L0.328,10.052L0.525,9.678L0.765,9.331L1.045,9.017L1.358,8.738L1.705,8.498L2.08,8.3L2.48,8.147L2.816,8.061L3.252,8L3.611,7.991L4.054,8.03L4.106,8.042L5.474,5.942ZM3.478,9.858L3.19,9.89L2.885,9.984L2.608,10.136L2.393,10.309L2.208,10.516L2.062,10.751L1.957,11.007L1.893,11.324L1.889,11.621L1.936,11.903L2.028,12.166L2.185,12.439L2.393,12.678L2.608,12.852L2.814,12.97L3.072,13.069L3.393,13.125L3.69,13.121L3.969,13.069L4.264,12.952L4.53,12.782L4.759,12.564L4.942,12.306L5.085,11.98L5.149,11.663L5.149,11.324L5.085,11.007L4.98,10.751L4.809,10.485L4.621,10.282L4.368,10.093L4.12,9.969L3.852,9.89L3.606,9.859L3.478,9.858ZM12.431,9.852L12.144,9.884L11.839,9.979L11.561,10.13L11.346,10.303L11.162,10.51L11.016,10.745L10.911,11.001L10.846,11.319L10.843,11.615L10.889,11.897L10.982,12.16L11.139,12.434L11.346,12.673L11.561,12.846L11.767,12.964L12.026,13.063L12.347,13.12L12.643,13.116L12.923,13.063L13.218,12.947L13.484,12.776L13.713,12.558L13.896,12.3L14.038,11.975L14.103,11.657L14.103,11.319L14.038,11.001L13.934,10.745L13.763,10.48L13.574,10.276L13.321,10.087L13.074,9.964L12.806,9.884L12.56,9.853L12.431,9.852ZM7.918,0.81L7.509,0.851L7.122,0.951L6.76,1.104L6.425,1.307L6.078,1.601L5.822,1.896L5.581,2.283L5.428,2.646L5.34,2.967L5.289,3.373L5.299,3.789L5.371,4.189L5.497,4.564L5.676,4.913L5.902,5.231L6.171,5.514L6.533,5.79L6.877,5.978L7.248,6.113L7.644,6.194L8.059,6.215L8.468,6.174L8.855,6.074L9.218,5.921L9.605,5.679L9.945,5.377L10.193,5.077L10.396,4.742L10.55,4.379L10.649,3.991L10.691,3.582L10.67,3.167L10.59,2.773L10.453,2.401L10.266,2.057L10.033,1.744L9.757,1.469L9.445,1.235L9.1,1.048L8.729,0.912L8.334,0.83L7.918,0.81Z"/>
</svg>
