<?xml version="1.0" encoding="UTF-8" standalone="no"?>
<!DOCTYPE svg PUBLIC "-//W3C//DTD SVG 1.1//EN" "http://www.w3.org/Graphics/SVG/1.1/DTD/svg11.dtd">
<svg width="100%" height="100%" viewBox="0 0 14 14" version="1.1" xmlns="http://www.w3.org/2000/svg" xmlns:xlink="http://www.w3.org/1999/xlink" xml:space="preserve" xmlns:serif="http://www.serif.com/" style="fill-rule:evenodd;clip-rule:evenodd;stroke-linejoin:round;stroke-miterlimit:2;">
    <g id="Canvas" transform="matrix(1,0,0,1,-1345,-1363)">
        <g id="b-location">
            <g id="Group">
                <g transform="matrix(1,0,0,1,1349.08,1363)">
                    <g id="Vector">
                        <path id="path0_fill" d="M2.917,0C1.483,0 0,1.051 0,2.81C0,4.394 2.257,6.593 2.514,6.839L2.917,7.223L3.319,6.838C3.576,6.593 5.833,4.394 5.833,2.81C5.833,1.051 4.351,0 2.917,0ZM2.917,4.083C2.272,4.083 1.75,3.561 1.75,2.917C1.75,2.272 2.272,1.75 2.917,1.75C3.561,1.75 4.083,2.272 4.083,2.917C4.083,3.561 3.561,4.083 2.917,4.083Z" style="fill-rule:nonzero;"/>
                    </g>
                </g>
                <g transform="matrix(1,0,0,1,1345,1373.5)">
                    <g id="Vector1" serif:id="Vector">
                        <path id="path1_fill" d="M5.766,0.874C5.263,0.475 4.412,0 3.208,0C2.005,0 1.153,0.475 0.652,0.874C0.237,1.202 0,1.699 0,2.238L0,3.5L6.417,3.5L6.417,2.238C6.417,1.699 6.179,1.202 5.766,0.874Z" style="fill-rule:nonzero;"/>
                    </g>
                </g>
                <g transform="matrix(1,0,0,1,1346.17,1368.83)">
                    <g id="Vector2" serif:id="Vector">
                        <path id="path2_fill" d="M2.042,4.083C3.169,4.083 4.083,3.169 4.083,2.042C4.083,0.914 3.169,0 2.042,0C0.914,0 0,0.914 0,2.042C0,3.169 0.914,4.083 2.042,4.083Z" style="fill-rule:nonzero;"/>
                    </g>
                </g>
                <g transform="matrix(1,0,0,1,1352.58,1373.5)">
                    <g id="Vector3" serif:id="Vector">
                        <path id="path3_fill" d="M5.766,0.874C5.263,0.475 4.412,0 3.208,0C2.005,0 1.153,0.475 0.652,0.874C0.237,1.202 0,1.699 0,2.238L0,3.5L6.417,3.5L6.417,2.238C6.417,1.699 6.179,1.202 5.766,0.874Z" style="fill-rule:nonzero;"/>
                    </g>
                </g>
                <g transform="matrix(1,0,0,1,1353.75,1368.83)">
                    <g id="Vector4" serif:id="Vector">
                        <path id="path2_fill1" serif:id="path2_fill" d="M2.042,4.083C3.169,4.083 4.083,3.169 4.083,2.042C4.083,0.914 3.169,0 2.042,0C0.914,0 0,0.914 0,2.042C0,3.169 0.914,4.083 2.042,4.083Z" style="fill-rule:nonzero;"/>
                    </g>
                </g>
            </g>
        </g>
    </g>
</svg>
